<svg width="20" height="20" viewBox="0 0 20 20" fill="none" xmlns="http://www.w3.org/2000/svg">
<path d="M17.3866 0C17.5893 0 17.7832 0.0396563 17.9683 0.118969C18.2591 0.233532 18.4904 0.414188 18.6623 0.660939C18.8341 0.907689 18.92 1.18088 18.92 1.4805V18.5195C18.92 18.8191 18.8341 19.0923 18.6623 19.3391C18.4904 19.5858 18.2591 19.7665 17.9683 19.881C17.8008 19.9515 17.607 19.9868 17.3866 19.9868C16.9636 19.9868 16.5979 19.8458 16.2895 19.5638L10.46 13.959L4.63054 19.5638C4.31328 19.8546 3.94757 20 3.53338 20C3.33069 20 3.13681 19.9603 2.95175 19.881C2.66094 19.7665 2.42961 19.5858 2.25777 19.3391C2.08592 19.0923 2 18.8191 2 18.5195V1.4805C2 1.18088 2.08592 0.907689 2.25777 0.660939C2.42961 0.414188 2.66094 0.233532 2.95175 0.118969C3.13681 0.0396563 3.33069 0 3.53338 0H17.3866Z" fill="#5A698F"/>
</svg>
